<svg width="26" height="15" viewBox="0 0 26 15" fill="none" xmlns="http://www.w3.org/2000/svg">
<path d="M11.75 14.0713C11.5684 14.0713 11.3984 14.042 11.2402 13.9834C11.082 13.9307 10.915 13.8516 10.7393 13.7461L1.7832 8.47266C1.47266 8.29102 1.24707 8.0918 1.10645 7.875C0.96582 7.65234 0.895508 7.41504 0.895508 7.16309C0.895508 6.91113 0.962891 6.67676 1.09766 6.45996C1.23828 6.24316 1.4668 6.04395 1.7832 5.8623L10.7393 0.588867C10.915 0.483398 11.082 0.404297 11.2402 0.351562C11.3984 0.292969 11.5684 0.263672 11.75 0.263672C12.0957 0.263672 12.3916 0.392578 12.6377 0.650391C12.8896 0.908203 13.0156 1.28027 13.0156 1.7666V12.5684C13.0156 13.0547 12.8896 13.4268 12.6377 13.6846C12.3916 13.9424 12.0957 14.0713 11.75 14.0713ZM23.8262 14.0713C23.6445 14.0713 23.4746 14.042 23.3164 13.9834C23.1582 13.9307 22.9912 13.8516 22.8154 13.7461L13.8594 8.47266C13.5488 8.29102 13.3232 8.0918 13.1826 7.875C13.042 7.65234 12.9717 7.41504 12.9717 7.16309C12.9717 6.91113 13.042 6.67676 13.1826 6.45996C13.3232 6.24316 13.5488 6.04395 13.8594 5.8623L22.8154 0.588867C22.9971 0.483398 23.1641 0.404297 23.3164 0.351562C23.4746 0.292969 23.6445 0.263672 23.8262 0.263672C24.1719 0.263672 24.4678 0.392578 24.7139 0.650391C24.9658 0.908203 25.0918 1.28027 25.0918 1.7666V12.5684C25.0918 13.0547 24.9658 13.4268 24.7139 13.6846C24.4678 13.9424 24.1719 14.0713 23.8262 14.0713Z" fill="white"/>
</svg>
