<svg width="22" height="22" viewBox="0 0 22 22" fill="none" xmlns="http://www.w3.org/2000/svg">
<path d="M0.504883 9.22461C0.504883 8.04297 0.726888 6.93652 1.1709 5.90527C1.61491 4.86686 2.23079 3.95378 3.01855 3.16602C3.80632 2.37826 4.71582 1.76237 5.74707 1.31836C6.78548 0.874349 7.89551 0.652344 9.07715 0.652344C10.2588 0.652344 11.3652 0.874349 12.3965 1.31836C13.4349 1.76237 14.348 2.37826 15.1357 3.16602C15.9235 3.95378 16.5394 4.86686 16.9834 5.90527C17.4274 6.93652 17.6494 8.04297 17.6494 9.22461C17.6494 10.2057 17.4919 11.1367 17.1768 12.0176C16.8688 12.8984 16.4391 13.6969 15.8877 14.4131L21.1406 19.6982C21.2552 19.8128 21.3411 19.9453 21.3984 20.0957C21.4629 20.2461 21.4951 20.4072 21.4951 20.5791C21.4951 20.8154 21.4414 21.0303 21.334 21.2236C21.2337 21.417 21.0905 21.5674 20.9043 21.6748C20.7181 21.7894 20.5033 21.8467 20.2598 21.8467C20.0879 21.8467 19.9232 21.8145 19.7656 21.75C19.6152 21.6927 19.4756 21.6032 19.3467 21.4814L14.0615 16.1855C13.3597 16.6868 12.5863 17.0807 11.7412 17.3672C10.8962 17.6536 10.0081 17.7969 9.07715 17.7969C7.89551 17.7969 6.78548 17.5749 5.74707 17.1309C4.71582 16.6868 3.80632 16.071 3.01855 15.2832C2.23079 14.4954 1.61491 13.5859 1.1709 12.5547C0.726888 11.5163 0.504883 10.4062 0.504883 9.22461ZM2.3418 9.22461C2.3418 10.1556 2.51367 11.0293 2.85742 11.8457C3.20833 12.6549 3.69173 13.3675 4.30762 13.9834C4.93066 14.5993 5.64681 15.0827 6.45605 15.4336C7.27246 15.7845 8.14616 15.96 9.07715 15.96C10.0081 15.96 10.8783 15.7845 11.6875 15.4336C12.5039 15.0827 13.2201 14.5993 13.8359 13.9834C14.4518 13.3675 14.9352 12.6549 15.2861 11.8457C15.637 11.0293 15.8125 10.1556 15.8125 9.22461C15.8125 8.29362 15.637 7.4235 15.2861 6.61426C14.9352 5.79785 14.4518 5.08171 13.8359 4.46582C13.2201 3.84277 12.5039 3.35938 11.6875 3.01562C10.8783 2.66471 10.0081 2.48926 9.07715 2.48926C8.14616 2.48926 7.27246 2.66471 6.45605 3.01562C5.64681 3.35938 4.93066 3.84277 4.30762 4.46582C3.69173 5.08171 3.20833 5.79785 2.85742 6.61426C2.51367 7.4235 2.3418 8.29362 2.3418 9.22461Z" fill="white"/>
</svg>
