<svg width="18" height="23" viewBox="0 0 18 23" fill="none" xmlns="http://www.w3.org/2000/svg">
<path d="M2.47852 22.7715C1.87695 22.7715 1.42122 22.6165 1.11133 22.3066C0.810547 21.9967 0.660156 21.541 0.660156 20.9395V2.31836C0.660156 1.72591 0.810547 1.27474 1.11133 0.964844C1.42122 0.654948 1.87695 0.5 2.47852 0.5H5.5957C6.18815 0.5 6.63932 0.650391 6.94922 0.951172C7.25911 1.24284 7.41406 1.69857 7.41406 2.31836V20.9395C7.41406 21.541 7.25911 21.9967 6.94922 22.3066C6.63932 22.6165 6.18815 22.7715 5.5957 22.7715H2.47852ZM12.418 22.7715C11.8164 22.7715 11.3607 22.6165 11.0508 22.3066C10.7409 21.9967 10.5859 21.541 10.5859 20.9395V2.31836C10.5859 1.72591 10.7409 1.27474 11.0508 0.964844C11.3607 0.654948 11.8164 0.5 12.418 0.5H15.5215C16.123 0.5 16.5742 0.650391 16.875 0.951172C17.1849 1.24284 17.3398 1.69857 17.3398 2.31836V20.9395C17.3398 21.541 17.1849 21.9967 16.875 22.3066C16.5742 22.6165 16.123 22.7715 15.5215 22.7715H12.418Z" fill="white"/>
</svg>
