<svg width="19" height="18" viewBox="0 0 19 18" fill="none" xmlns="http://www.w3.org/2000/svg">
<path d="M9.35315 5.82621C7.98397 5.82621 6.84585 4.68808 6.84585 3.31891C6.84585 1.94118 7.98397 0.828721 9.35315 0.820163C10.7138 0.811606 11.8519 1.94118 11.8519 3.31891C11.8519 4.68808 10.7138 5.82621 9.35315 5.82621ZM15.6514 5.82621C14.2822 5.82621 13.1612 4.68808 13.1612 3.31891C13.1612 1.94118 14.2822 0.828721 15.6514 0.820163C17.0291 0.811606 18.1501 1.94118 18.1501 3.31891C18.1501 4.68808 17.0291 5.82621 15.6514 5.82621ZM3.04639 5.81765C1.66865 5.81765 0.547641 4.68808 0.547641 3.32747C0.547641 1.95829 1.66865 0.820163 3.04639 0.820163C4.41556 0.820163 5.53657 1.95829 5.53657 3.32747C5.53657 4.68808 4.41556 5.81765 3.04639 5.81765ZM15.6514 4.59395C16.3702 4.59395 16.935 4.02917 16.935 3.31891C16.935 2.60009 16.3702 2.03531 15.6514 2.03531C14.9325 2.03531 14.3934 2.60009 14.3934 3.31891C14.3934 4.02917 14.9325 4.59395 15.6514 4.59395ZM3.04639 4.55117C3.73953 4.55117 4.2872 4.0035 4.2872 3.31891C4.2872 2.62576 3.73953 2.06954 3.04639 2.06954C2.34468 2.06954 1.80557 2.62576 1.80557 3.31891C1.80557 4.0035 2.34468 4.55117 3.04639 4.55117ZM9.35315 4.55117C10.0549 4.55117 10.6025 4.0035 10.5854 3.31891C10.5768 2.62576 10.0549 2.06954 9.35315 2.06954C8.65145 2.06954 8.11233 2.62576 8.11233 3.31891C8.11233 4.0035 8.65145 4.55117 9.35315 4.55117ZM15.6514 11.7137C14.2822 11.7137 13.1612 10.5755 13.1612 9.21492C13.1612 7.84574 14.2822 6.73329 15.6514 6.72473C17.0291 6.71617 18.1501 7.84574 18.1501 9.21492C18.1501 10.5755 17.0291 11.7137 15.6514 11.7137ZM9.35315 11.7137C7.98397 11.7137 6.84585 10.5755 6.84585 9.21492C6.84585 7.84574 7.98397 6.73329 9.35315 6.72473C10.7138 6.71617 11.8519 7.84574 11.8519 9.21492C11.8519 10.5755 10.7138 11.7137 9.35315 11.7137ZM3.04639 11.7137C1.66865 11.7137 0.547641 10.5755 0.547641 9.21492C0.547641 7.84574 1.66865 6.73329 3.04639 6.72473C4.41556 6.71617 5.53657 7.84574 5.53657 9.21492C5.53657 10.5755 4.41556 11.7137 3.04639 11.7137ZM3.04639 10.49C3.7652 10.49 4.31287 9.92518 4.31287 9.20636C4.31287 8.4961 3.7652 7.92276 3.04639 7.92276C2.32757 7.92276 1.77134 8.4961 1.77134 9.20636C1.77134 9.92518 2.32757 10.49 3.04639 10.49ZM9.35315 10.49C10.072 10.49 10.6282 9.92518 10.6282 9.20636C10.6282 8.4961 10.072 7.92276 9.35315 7.92276C8.63433 7.92276 8.06955 8.4961 8.06955 9.20636C8.06955 9.92518 8.63433 10.49 9.35315 10.49ZM15.6514 10.49C16.3702 10.49 16.935 9.92518 16.935 9.20636C16.935 8.4961 16.3702 7.92276 15.6514 7.92276C14.9325 7.92276 14.3934 8.4961 14.3934 9.20636C14.3934 9.92518 14.9325 10.49 15.6514 10.49ZM3.04639 17.6097C1.66865 17.6097 0.547641 16.4715 0.547641 15.1109C0.547641 13.7332 1.66865 12.6122 3.04639 12.6122C4.41556 12.6122 5.53657 13.7332 5.53657 15.1109C5.53657 16.4715 4.41556 17.6097 3.04639 17.6097ZM9.35315 17.6097C7.98397 17.6097 6.84585 16.4715 6.84585 15.1109C6.84585 13.7332 7.98397 12.6122 9.35315 12.6122C10.7138 12.6122 11.8519 13.7332 11.8519 15.1109C11.8519 16.4715 10.7138 17.6097 9.35315 17.6097ZM15.6514 17.6097C14.2822 17.6097 13.1612 16.4715 13.1612 15.1109C13.1612 13.7332 14.2822 12.6122 15.6514 12.6122C17.0291 12.6122 18.1501 13.7332 18.1501 15.1109C18.1501 16.4715 17.0291 17.6097 15.6514 17.6097ZM3.04639 16.386C3.7652 16.386 4.31287 15.8212 4.31287 15.1024C4.31287 14.3921 3.7652 13.8188 3.04639 13.8188C2.32757 13.8188 1.77134 14.3921 1.77134 15.1024C1.77134 15.8212 2.32757 16.386 3.04639 16.386ZM9.35315 16.386C10.072 16.386 10.6282 15.8212 10.6282 15.1024C10.6282 14.3921 10.072 13.8188 9.35315 13.8188C8.63433 13.8188 8.06955 14.3921 8.06955 15.1024C8.06955 15.8212 8.63433 16.386 9.35315 16.386ZM15.6514 16.386C16.3702 16.386 16.935 15.8212 16.935 15.1024C16.935 14.3921 16.3702 13.8188 15.6514 13.8188C14.9325 13.8188 14.3934 14.3921 14.3934 15.1024C14.3934 15.8212 14.9325 16.386 15.6514 16.386Z" fill="white"/>
</svg>
