<svg width="20" height="26" viewBox="0 0 20 26" fill="none" xmlns="http://www.w3.org/2000/svg">
<path d="M3.95215 25.7266C2.8278 25.7266 1.98275 25.4473 1.41699 24.8887C0.858398 24.3372 0.579102 23.5065 0.579102 22.3965V10.2148C0.579102 9.10482 0.858398 8.27409 1.41699 7.72266C1.98275 7.16406 2.8278 6.88477 3.95215 6.88477H16.0479C17.165 6.88477 18.0065 7.16406 18.5723 7.72266C19.138 8.27409 19.4209 9.10482 19.4209 10.2148V22.3965C19.4209 23.4993 19.1523 24.3301 18.6152 24.8887C18.0781 25.4473 17.3298 25.7266 16.3701 25.7266H3.95215ZM3.97363 23.9971H16.3379C16.7103 23.9971 17.029 23.8538 17.2939 23.5674C17.5589 23.2809 17.6914 22.8584 17.6914 22.2998V10.3008C17.6914 9.74935 17.5446 9.3304 17.251 9.04395C16.9574 8.75749 16.5456 8.61426 16.0156 8.61426H3.97363C3.43652 8.61426 3.02474 8.75749 2.73828 9.04395C2.45182 9.3304 2.30859 9.74935 2.30859 10.3008V22.2998C2.30859 22.8584 2.45182 23.2809 2.73828 23.5674C3.02474 23.8538 3.43652 23.9971 3.97363 23.9971ZM2.9209 5.15527C2.99967 4.66829 3.16797 4.2959 3.42578 4.03809C3.68359 3.77311 4.08105 3.64062 4.61816 3.64062H15.3711C15.9082 3.64062 16.3057 3.77311 16.5635 4.03809C16.8213 4.2959 16.9896 4.66829 17.0684 5.15527H2.9209ZM4.79004 2.17969C4.81868 1.72135 4.96191 1.3776 5.21973 1.14844C5.4847 0.912109 5.86426 0.793945 6.3584 0.793945H13.6309C14.125 0.793945 14.501 0.912109 14.7588 1.14844C15.0238 1.3776 15.1742 1.72135 15.21 2.17969H4.79004Z" fill="white"/>
</svg>
