<svg width="22" height="23" viewBox="0 0 22 23" fill="none" xmlns="http://www.w3.org/2000/svg">
<path d="M11 22.2012C9.50326 22.2012 8.09245 21.9147 6.76758 21.3418C5.44987 20.7689 4.28613 19.9775 3.27637 18.9678C2.2666 17.958 1.47526 16.7943 0.902344 15.4766C0.329427 14.1517 0.0429688 12.7409 0.0429688 11.2441C0.0429688 9.7474 0.329427 8.34017 0.902344 7.02246C1.47526 5.69759 2.26302 4.53027 3.26562 3.52051C4.27539 2.51074 5.43913 1.7194 6.75684 1.14648C8.08171 0.573568 9.49251 0.287109 10.9893 0.287109C12.486 0.287109 13.8968 0.573568 15.2217 1.14648C16.5465 1.7194 17.7139 2.51074 18.7236 3.52051C19.7334 4.53027 20.5247 5.69759 21.0977 7.02246C21.6706 8.34017 21.957 9.7474 21.957 11.2441C21.957 12.7409 21.6706 14.1517 21.0977 15.4766C20.5247 16.7943 19.7334 17.958 18.7236 18.9678C17.7139 19.9775 16.5465 20.7689 15.2217 21.3418C13.904 21.9147 12.4967 22.2012 11 22.2012ZM11 20.375C12.2676 20.375 13.4528 20.1387 14.5557 19.666C15.6585 19.1934 16.6289 18.5417 17.4668 17.7109C18.3047 16.873 18.9564 15.9027 19.4219 14.7998C19.8945 13.6969 20.1309 12.5117 20.1309 11.2441C20.1309 9.97656 19.8945 8.79134 19.4219 7.68848C18.9492 6.58561 18.2939 5.61523 17.4561 4.77734C16.6253 3.93945 15.6549 3.28776 14.5449 2.82227C13.4421 2.34961 12.2568 2.11328 10.9893 2.11328C9.72168 2.11328 8.53646 2.34961 7.43359 2.82227C6.33073 3.28776 5.36393 3.93945 4.5332 4.77734C3.70247 5.61523 3.05078 6.58561 2.57812 7.68848C2.11263 8.79134 1.87988 9.97656 1.87988 11.2441C1.87988 12.5117 2.11263 13.6969 2.57812 14.7998C3.05078 15.9027 3.70247 16.873 4.5332 17.7109C5.37109 18.5417 6.34147 19.1934 7.44434 19.666C8.5472 20.1387 9.73242 20.375 11 20.375ZM8.99121 15.4443C8.74056 15.5947 8.49707 15.6234 8.26074 15.5303C8.03158 15.43 7.91699 15.2474 7.91699 14.9824V7.5166C7.91699 7.25879 8.03874 7.08333 8.28223 6.99023C8.52572 6.89714 8.76204 6.91862 8.99121 7.05469L15.1143 10.6855C15.3291 10.8145 15.4365 11.0042 15.4365 11.2549C15.4437 11.5055 15.3363 11.6989 15.1143 11.835L8.99121 15.4443Z" fill="white"/>
</svg>
