<svg width="19" height="19" viewBox="0 0 19 19" fill="none" xmlns="http://www.w3.org/2000/svg">
<path d="M9.35315 18.4444C4.58671 18.4444 0.624657 14.4823 0.624657 9.71588C0.624657 4.94088 4.57815 0.987391 9.34459 0.987391C14.1196 0.987391 18.0816 4.94088 18.0816 9.71588C18.0816 14.4823 14.1281 18.4444 9.35315 18.4444ZM9.35315 16.9896C13.3922 16.9896 16.6269 13.755 16.6269 9.71588C16.6269 5.67682 13.3837 2.44214 9.34459 2.44214C5.30552 2.44214 2.08796 5.67682 2.08796 9.71588C2.08796 13.755 5.31408 16.9896 9.35315 16.9896ZM4.87766 10.6401C4.53536 10.6401 4.27864 10.3834 4.27864 10.0411C4.27864 9.70733 4.53536 9.45061 4.87766 9.45061H8.75414V4.27341C8.75414 3.93968 9.01086 3.68295 9.34459 3.68295C9.67833 3.68295 9.94361 3.93968 9.94361 4.27341V10.0411C9.94361 10.3834 9.67833 10.6401 9.34459 10.6401H4.87766Z" fill="white"/>
</svg>
