<svg width="20" height="23" viewBox="0 0 20 23" fill="none" xmlns="http://www.w3.org/2000/svg">
<path d="M0.460938 18.8184V7.7002C0.460938 6.59017 0.740234 5.75944 1.29883 5.20801C1.86458 4.64941 2.70964 4.37012 3.83398 4.37012H5.54199C5.56348 3.61816 5.77474 2.92708 6.17578 2.29688C6.57682 1.65951 7.11035 1.15104 7.77637 0.771484C8.44238 0.384766 9.18001 0.191406 9.98926 0.191406C10.7985 0.191406 11.5361 0.384766 12.2021 0.771484C12.8682 1.15104 13.4017 1.65951 13.8027 2.29688C14.2109 2.92708 14.4222 3.61816 14.4365 4.37012H16.1553C17.2725 4.37012 18.1139 4.64941 18.6797 5.20801C19.2454 5.75944 19.5283 6.59017 19.5283 7.7002V18.8184C19.5283 19.9284 19.2598 20.7591 18.7227 21.3105C18.1855 21.8691 17.4372 22.1484 16.4775 22.1484H3.83398C2.70964 22.1484 1.86458 21.8691 1.29883 21.3105C0.740234 20.7591 0.460938 19.9284 0.460938 18.8184ZM2.19043 18.7324C2.19043 19.291 2.33366 19.7135 2.62012 20C2.90658 20.2793 3.31836 20.4189 3.85547 20.4189H16.4453C16.8177 20.4189 17.1364 20.2793 17.4014 20C17.6663 19.7135 17.7988 19.291 17.7988 18.7324V7.78613C17.7988 7.22754 17.652 6.80859 17.3584 6.5293C17.0648 6.24284 16.653 6.09961 16.123 6.09961H3.85547C3.31836 6.09961 2.90658 6.24284 2.62012 6.5293C2.33366 6.80859 2.19043 7.22754 2.19043 7.78613V18.7324ZM7.27148 4.37012H12.707C12.6927 3.90462 12.5638 3.47852 12.3203 3.0918C12.084 2.70508 11.7617 2.39714 11.3535 2.16797C10.9525 1.9388 10.4977 1.82422 9.98926 1.82422C9.48796 1.82422 9.0332 1.9388 8.625 2.16797C8.22396 2.39714 7.90169 2.70508 7.6582 3.0918C7.41471 3.47852 7.28581 3.90462 7.27148 4.37012Z" fill="white"/>
</svg>
