<svg width="13" height="7" viewBox="0 0 13 7" fill="none" xmlns="http://www.w3.org/2000/svg">
<path d="M6.5 6.70801C6.32227 6.70801 6.16504 6.63965 6.03516 6.50977L0.744141 1.0957C0.62793 0.972656 0.55957 0.822266 0.55957 0.651367C0.55957 0.295898 0.826172 0.0224609 1.18164 0.0224609C1.35938 0.0224609 1.5166 0.0908203 1.62598 0.200195L6.5 5.17676L11.3672 0.200195C11.4834 0.0908203 11.6406 0.0224609 11.8115 0.0224609C12.167 0.0224609 12.4336 0.295898 12.4336 0.651367C12.4336 0.822266 12.3652 0.972656 12.249 1.08887L6.95801 6.50977C6.8418 6.63965 6.6709 6.70801 6.5 6.70801Z" fill="white"/>
</svg>
