<svg width="19" height="19" viewBox="0 0 19 19" fill="none" xmlns="http://www.w3.org/2000/svg">
<path d="M11.9631 1.90246C13.4692 0.396371 15.3604 0.362142 16.798 1.78266C18.2442 3.2203 18.1843 5.12858 16.6782 6.61756L11.9631 1.90246ZM9.57564 18.1357C9.13922 18.1357 8.79692 17.7935 8.79692 17.3656V12.4708L4.35566 16.5783C4.01337 16.9035 3.51704 16.9548 3.13196 16.5526L1.72 17.6565C1.56597 17.7763 1.36915 17.7678 1.22367 17.6223L0.975508 17.3656C0.821476 17.2116 0.830033 17.0147 0.932722 16.8778L2.02806 15.4659C1.62587 15.0637 1.67721 14.5759 2.00239 14.225L9.96072 5.65914C9.8238 4.67504 10.2003 3.66528 11.1074 2.76676L15.8139 7.48185C14.9154 8.38037 13.8885 8.78257 12.913 8.65421L10.3544 11.016V17.3656C10.3544 17.7935 10.0121 18.1357 9.57564 18.1357ZM2.8838 14.9267L3.67107 15.714L11.6294 8.175C11.4069 8.03808 11.1673 7.84126 10.9619 7.62733C10.748 7.39628 10.5769 7.16523 10.4314 6.91707L2.8838 14.9267Z" fill="white"/>
</svg>
