<svg width="15" height="15" viewBox="0 0 15 15" fill="none" xmlns="http://www.w3.org/2000/svg">
<path d="M0.182123 7.25885C0.182123 6.83954 0.532974 6.48869 0.943727 6.48869H6.48033V0.960646C6.48033 0.549893 6.82262 0.199042 7.24193 0.199042C7.66124 0.199042 8.01209 0.549893 8.01209 0.960646V6.48869H13.5401C13.9509 6.48869 14.3017 6.83954 14.3017 7.25885C14.3017 7.67816 13.9509 8.02046 13.5401 8.02046H8.01209V13.5571C8.01209 13.9678 7.66124 14.3187 7.24193 14.3187C6.82262 14.3187 6.48033 13.9678 6.48033 13.5571V8.02046H0.943727C0.532974 8.02046 0.182123 7.67816 0.182123 7.25885Z" fill="white"/>
</svg>
