<svg width="22" height="22" viewBox="0 0 22 22" fill="none" xmlns="http://www.w3.org/2000/svg">
<path d="M6.16602 8.90234C6.15885 8.49414 6.29492 8.12533 6.57422 7.7959C6.86068 7.46647 7.22233 7.2946 7.65918 7.28027C7.68066 7.53092 7.62695 7.78874 7.49805 8.05371C7.36914 8.31868 7.18652 8.53353 6.9502 8.69824C6.72103 8.86296 6.45964 8.93099 6.16602 8.90234ZM9.13086 12.6191C9.05924 12.8913 8.93392 13.1777 8.75488 13.4785C8.57585 13.7793 8.37174 14.0479 8.14258 14.2842C8.07096 14.3486 7.98145 14.4059 7.87402 14.4561C7.7666 14.499 7.64844 14.5205 7.51953 14.5205C7.39779 14.5205 7.29036 14.5026 7.19727 14.4668C7.11133 14.4238 7.01465 14.3844 6.90723 14.3486C6.83561 14.3271 6.75326 14.2985 6.66016 14.2627C6.56706 14.2269 6.45964 14.209 6.33789 14.209C6.07292 14.209 5.86165 14.2627 5.7041 14.3701C5.54655 14.4775 5.35677 14.5312 5.13477 14.5312C4.87695 14.5312 4.58691 14.3522 4.26465 13.9941C3.96387 13.6504 3.7168 13.2279 3.52344 12.7266C3.33724 12.2253 3.24414 11.7419 3.24414 11.2764C3.24414 10.9899 3.28353 10.7142 3.3623 10.4492C3.44824 10.1771 3.58073 9.93001 3.75977 9.70801C4.08203 9.29264 4.52604 9.08496 5.0918 9.08496C5.35677 9.08496 5.5752 9.14225 5.74707 9.25684C5.91895 9.36426 6.07292 9.41797 6.20898 9.41797C6.3737 9.41797 6.5599 9.36068 6.76758 9.24609C6.97526 9.13151 7.24382 9.07422 7.57324 9.07422C8.18197 9.07422 8.64388 9.30697 8.95898 9.77246C8.7513 9.89421 8.60091 10.0267 8.50781 10.1699C8.41471 10.3132 8.34668 10.4456 8.30371 10.5674C8.2321 10.7464 8.19271 10.9398 8.18555 11.1475C8.17839 11.3551 8.21777 11.5664 8.30371 11.7812C8.38249 11.9746 8.48633 12.1393 8.61523 12.2754C8.7513 12.4115 8.92318 12.526 9.13086 12.6191ZM12.0742 7.80664V9.07422H13.1055V9.93359H12.0742V12.9199C12.0742 13.3711 12.2891 13.5967 12.7188 13.5967C12.776 13.5967 12.8441 13.5967 12.9229 13.5967C13.0088 13.5895 13.0625 13.5788 13.084 13.5645V14.4775C13.0339 14.4847 12.9515 14.4954 12.8369 14.5098C12.7223 14.5169 12.6042 14.5205 12.4824 14.5205C11.931 14.5205 11.5371 14.4095 11.3008 14.1875C11.0716 13.9655 10.957 13.5859 10.957 13.0488V9.93359H10.1836V9.07422H10.957V7.80664H12.0742ZM16.7471 14.4775H15.5869L13.5996 9.07422H14.7812L16.1777 13.4141L17.4883 9.07422H18.7021L16.7471 14.4775ZM5.99414 21.9434C5.07747 21.9434 4.23958 21.8682 3.48047 21.7178C2.72852 21.5674 2.07682 21.2201 1.52539 20.6758C0.973958 20.1243 0.626628 19.4727 0.483398 18.7207C0.340169 17.9688 0.268555 17.1309 0.268555 16.207V6.28125C0.268555 5.37891 0.340169 4.55176 0.483398 3.7998C0.633789 3.04785 0.98112 2.39616 1.52539 1.84473C2.07682 1.30046 2.72852 0.953125 3.48047 0.802734C4.23958 0.652344 5.07031 0.577148 5.97266 0.577148H15.9844C16.901 0.577148 17.7389 0.652344 18.498 0.802734C19.2572 0.953125 19.9124 1.30046 20.4639 1.84473C21.0081 2.389 21.3519 3.04069 21.4951 3.7998C21.6455 4.55176 21.7207 5.38607 21.7207 6.30273V16.207C21.7207 17.1309 21.6455 17.9688 21.4951 18.7207C21.3519 19.4727 21.0081 20.1243 20.4639 20.6758C19.9124 21.2201 19.2572 21.5674 18.498 21.7178C17.7389 21.8682 16.901 21.9434 15.9844 21.9434H5.99414ZM5.7041 20.2139H16.2852C16.8366 20.2139 17.3773 20.1602 17.9072 20.0527C18.4443 19.9525 18.874 19.7376 19.1963 19.4082C19.5257 19.0859 19.7406 18.6598 19.8408 18.1299C19.9411 17.5999 19.9912 17.0592 19.9912 16.5078V6.0127C19.9912 5.46126 19.9411 4.92057 19.8408 4.39062C19.7406 3.86068 19.5257 3.43457 19.1963 3.1123C18.874 2.78288 18.4443 2.56803 17.9072 2.46777C17.3773 2.36035 16.8366 2.30664 16.2852 2.30664H5.73633C5.17057 2.30664 4.61556 2.36035 4.07129 2.46777C3.53418 2.56803 3.10449 2.7793 2.78223 3.10156C2.45996 3.43099 2.2487 3.86426 2.14844 4.40137C2.04818 4.93132 1.99805 5.47917 1.99805 6.04492V16.5078C1.99805 17.0592 2.04818 17.5999 2.14844 18.1299C2.2487 18.6598 2.45996 19.0859 2.78223 19.4082C3.11165 19.7376 3.54134 19.9525 4.07129 20.0527C4.6084 20.1602 5.15267 20.2139 5.7041 20.2139Z" fill="white"/>
</svg>
