<svg width="18" height="14" viewBox="0 0 18 14" fill="none" xmlns="http://www.w3.org/2000/svg">
<path d="M5.13281 2.55762C4.93359 2.55762 4.76367 2.49023 4.62305 2.35547C4.48828 2.2207 4.4209 2.05371 4.4209 1.85449C4.4209 1.65527 4.48828 1.48828 4.62305 1.35352C4.76367 1.21289 4.93359 1.14258 5.13281 1.14258H17.1387C17.3379 1.14258 17.5049 1.21289 17.6396 1.35352C17.7803 1.48828 17.8506 1.65527 17.8506 1.85449C17.8506 2.05371 17.7803 2.2207 17.6396 2.35547C17.5049 2.49023 17.3379 2.55762 17.1387 2.55762H5.13281ZM5.13281 7.875C4.93359 7.875 4.76367 7.80762 4.62305 7.67285C4.48828 7.53223 4.4209 7.3623 4.4209 7.16309C4.4209 6.96387 4.48828 6.79688 4.62305 6.66211C4.76367 6.52734 4.93359 6.45996 5.13281 6.45996H17.1387C17.3379 6.45996 17.5049 6.52734 17.6396 6.66211C17.7803 6.79688 17.8506 6.96387 17.8506 7.16309C17.8506 7.3623 17.7803 7.53223 17.6396 7.67285C17.5049 7.80762 17.3379 7.875 17.1387 7.875H5.13281ZM5.13281 13.1836C4.93359 13.1836 4.76367 13.1162 4.62305 12.9814C4.48828 12.8467 4.4209 12.6797 4.4209 12.4805C4.4209 12.2812 4.48828 12.1143 4.62305 11.9795C4.76367 11.8389 4.93359 11.7686 5.13281 11.7686H17.1387C17.3379 11.7686 17.5049 11.8389 17.6396 11.9795C17.7803 12.1143 17.8506 12.2812 17.8506 12.4805C17.8506 12.6797 17.7803 12.8467 17.6396 12.9814C17.5049 13.1162 17.3379 13.1836 17.1387 13.1836H5.13281ZM1.24805 2.95312C0.943359 2.95312 0.682617 2.84766 0.46582 2.63672C0.249023 2.41992 0.140625 2.15918 0.140625 1.85449C0.140625 1.54395 0.249023 1.2832 0.46582 1.07227C0.682617 0.855469 0.943359 0.74707 1.24805 0.74707C1.55273 0.74707 1.81348 0.855469 2.03027 1.07227C2.24707 1.2832 2.35547 1.54395 2.35547 1.85449C2.35547 2.15918 2.24707 2.41992 2.03027 2.63672C1.81348 2.84766 1.55273 2.95312 1.24805 2.95312ZM1.24805 8.27051C0.943359 8.27051 0.682617 8.16211 0.46582 7.94531C0.249023 7.72852 0.140625 7.46777 0.140625 7.16309C0.140625 6.8584 0.249023 6.59766 0.46582 6.38086C0.682617 6.16406 0.943359 6.05566 1.24805 6.05566C1.55273 6.05566 1.81348 6.16406 2.03027 6.38086C2.24707 6.59766 2.35547 6.8584 2.35547 7.16309C2.35547 7.46777 2.24707 7.72852 2.03027 7.94531C1.81348 8.16211 1.55273 8.27051 1.24805 8.27051ZM1.24805 13.5879C0.943359 13.5879 0.682617 13.4795 0.46582 13.2627C0.249023 13.0459 0.140625 12.7852 0.140625 12.4805C0.140625 12.1699 0.249023 11.9092 0.46582 11.6982C0.682617 11.4814 0.943359 11.373 1.24805 11.373C1.55273 11.373 1.81348 11.4814 2.03027 11.6982C2.24707 11.9092 2.35547 12.1699 2.35547 12.4805C2.35547 12.7852 2.24707 13.0459 2.03027 13.2627C1.81348 13.4795 1.55273 13.5879 1.24805 13.5879Z" fill="white"/>
</svg>
