<svg width="40" height="40" viewBox="0 0 40 40" fill="none" xmlns="http://www.w3.org/2000/svg">
<path d="M12.7441 21.9121C12.3861 21.9121 12.0573 21.8242 11.7578 21.6484C11.4648 21.4727 11.2305 21.2383 11.0547 20.9453C10.8789 20.6523 10.791 20.3236 10.791 19.959C10.791 19.6009 10.8789 19.2754 11.0547 18.9824C11.2305 18.6829 11.4648 18.4453 11.7578 18.2695C12.0573 18.0938 12.3861 18.0059 12.7441 18.0059C13.2975 18.0059 13.7663 18.1979 14.1504 18.582C14.5345 18.9596 14.7266 19.4186 14.7266 19.959C14.7266 20.3236 14.6354 20.6523 14.4531 20.9453C14.2773 21.2383 14.0397 21.4727 13.7402 21.6484C13.4473 21.8242 13.1152 21.9121 12.7441 21.9121ZM20 21.9121C19.6419 21.9121 19.3132 21.8242 19.0137 21.6484C18.7207 21.4727 18.4863 21.2383 18.3105 20.9453C18.1413 20.6523 18.0566 20.3236 18.0566 19.959C18.0566 19.6009 18.1413 19.2754 18.3105 18.9824C18.4863 18.6829 18.7207 18.4453 19.0137 18.2695C19.3132 18.0938 19.6419 18.0059 20 18.0059C20.5404 18.0059 20.9993 18.1979 21.377 18.582C21.7611 18.9596 21.9531 19.4186 21.9531 19.959C21.9531 20.3236 21.8652 20.6523 21.6895 20.9453C21.5137 21.2383 21.2793 21.4727 20.9863 21.6484C20.6934 21.8242 20.3646 21.9121 20 21.9121ZM27.2559 21.9121C26.8913 21.9121 26.5592 21.8242 26.2598 21.6484C25.9603 21.4727 25.7227 21.2383 25.5469 20.9453C25.3711 20.6523 25.2832 20.3236 25.2832 19.959C25.2832 19.6009 25.3711 19.2754 25.5469 18.9824C25.7227 18.6829 25.9603 18.4453 26.2598 18.2695C26.5592 18.0938 26.8913 18.0059 27.2559 18.0059C27.7962 18.0059 28.2552 18.1979 28.6328 18.582C29.0169 18.9596 29.209 19.4186 29.209 19.959C29.209 20.3236 29.1211 20.6523 28.9453 20.9453C28.7695 21.2383 28.5319 21.4727 28.2324 21.6484C27.9395 21.8242 27.6139 21.9121 27.2559 21.9121Z" fill="white"/>
</svg>
