<svg width="26" height="15" viewBox="0 0 26 15" fill="none" xmlns="http://www.w3.org/2000/svg">
<path d="M2.17383 14.0713C1.82812 14.0713 1.5293 13.9424 1.27734 13.6846C1.03125 13.4268 0.908203 13.0547 0.908203 12.5684V1.7666C0.908203 1.28027 1.03125 0.908203 1.27734 0.650391C1.5293 0.392578 1.82812 0.263672 2.17383 0.263672C2.35547 0.263672 2.52539 0.292969 2.68359 0.351562C2.8418 0.404297 3.00879 0.483398 3.18457 0.588867L12.1406 5.8623C12.457 6.04395 12.6855 6.24316 12.8262 6.45996C12.9668 6.67676 13.0371 6.91113 13.0371 7.16309C13.0371 7.41504 12.9639 7.65234 12.8174 7.875C12.6768 8.0918 12.4512 8.29102 12.1406 8.47266L3.18457 13.7461C3.00879 13.8516 2.8418 13.9307 2.68359 13.9834C2.52539 14.042 2.35547 14.0713 2.17383 14.0713ZM14.25 14.0713C13.9043 14.0713 13.6055 13.9424 13.3535 13.6846C13.1074 13.4268 12.9844 13.0547 12.9844 12.5684V1.7666C12.9844 1.28027 13.1074 0.908203 13.3535 0.650391C13.6055 0.392578 13.9043 0.263672 14.25 0.263672C14.4316 0.263672 14.6016 0.292969 14.7598 0.351562C14.918 0.404297 15.085 0.483398 15.2607 0.588867L24.2168 5.8623C24.5332 6.04395 24.7617 6.24316 24.9023 6.45996C25.043 6.67676 25.1133 6.91113 25.1133 7.16309C25.1133 7.41504 25.04 7.65234 24.8936 7.875C24.7529 8.0918 24.5273 8.29102 24.2168 8.47266L15.2607 13.7461C15.085 13.8516 14.918 13.9307 14.7598 13.9834C14.6016 14.042 14.4316 14.0713 14.25 14.0713Z" fill="white"/>
</svg>
