<svg width="20" height="19" viewBox="0 0 20 19" fill="none" xmlns="http://www.w3.org/2000/svg">
<path d="M5.71973 18.8135C5.41504 18.8135 5.17773 18.7109 5.00781 18.5059C4.84375 18.3066 4.76172 18.0371 4.76172 17.6973V15.4121H4.33984C3.4668 15.4121 2.73145 15.2568 2.13379 14.9463C1.53613 14.6299 1.08203 14.1729 0.771484 13.5752C0.466797 12.9775 0.314453 12.248 0.314453 11.3867V4.6543C0.314453 3.79297 0.466797 3.06348 0.771484 2.46582C1.08203 1.86816 1.53613 1.41406 2.13379 1.10352C2.73145 0.787109 3.4668 0.628906 4.33984 0.628906H15.6602C16.5332 0.628906 17.2686 0.787109 17.8662 1.10352C18.4639 1.41406 18.915 1.86816 19.2197 2.46582C19.5303 3.06348 19.6855 3.79297 19.6855 4.6543V11.3867C19.6855 12.248 19.5303 12.9775 19.2197 13.5752C18.915 14.1729 18.4639 14.6299 17.8662 14.9463C17.2686 15.2568 16.5332 15.4121 15.6602 15.4121H10.0176L6.98535 18.1104C6.72168 18.3447 6.49902 18.5205 6.31738 18.6377C6.13574 18.7549 5.93652 18.8135 5.71973 18.8135ZM6.08008 17.2051L8.89258 14.4102C9.05664 14.2402 9.21484 14.1289 9.36719 14.0762C9.51953 14.0234 9.71875 13.9971 9.96484 13.9971H15.6602C16.5449 13.9971 17.2012 13.7773 17.6289 13.3379C18.0566 12.8926 18.2705 12.2393 18.2705 11.3779V4.6543C18.2705 3.79883 18.0566 3.15137 17.6289 2.71191C17.2012 2.2666 16.5449 2.04395 15.6602 2.04395H4.33984C3.44922 2.04395 2.79004 2.2666 2.3623 2.71191C1.94043 3.15137 1.72949 3.79883 1.72949 4.6543V11.3779C1.72949 12.2393 1.94043 12.8926 2.3623 13.3379C2.79004 13.7773 3.44922 13.9971 4.33984 13.9971H5.4209C5.66113 13.9971 5.83105 14.0469 5.93066 14.1465C6.03027 14.2461 6.08008 14.416 6.08008 14.6562V17.2051ZM5.75488 7.08008C5.75488 6.55859 5.93066 6.13379 6.28223 5.80566C6.63965 5.47168 7.08203 5.30469 7.60938 5.30469C8.17773 5.30469 8.6377 5.50684 8.98926 5.91113C9.34668 6.30957 9.52539 6.80762 9.52539 7.40527C9.52539 7.96191 9.42871 8.44824 9.23535 8.86426C9.04785 9.27441 8.80762 9.61426 8.51465 9.88379C8.22754 10.1533 7.93457 10.3555 7.63574 10.4902C7.33691 10.625 7.07617 10.6924 6.85352 10.6924C6.72461 10.6924 6.61914 10.6543 6.53711 10.5781C6.46094 10.4961 6.42285 10.3994 6.42285 10.2881C6.42285 10.1826 6.45215 10.0947 6.51074 10.0244C6.56934 9.94824 6.68066 9.88965 6.84473 9.84863C7.03223 9.7959 7.22559 9.71094 7.4248 9.59375C7.62988 9.47656 7.81738 9.32715 7.9873 9.14551C8.16309 8.96387 8.30371 8.75 8.40918 8.50391H8.33887C8.22754 8.65039 8.08398 8.74707 7.9082 8.79395C7.73828 8.83496 7.5625 8.85547 7.38086 8.85547C6.88281 8.85547 6.4873 8.68555 6.19434 8.3457C5.90137 8 5.75488 7.57812 5.75488 7.08008ZM10.501 7.08008C10.501 6.55859 10.6768 6.13379 11.0283 5.80566C11.3857 5.47168 11.8281 5.30469 12.3555 5.30469C12.9238 5.30469 13.3838 5.50684 13.7354 5.91113C14.0928 6.30957 14.2715 6.80762 14.2715 7.40527C14.2715 7.96191 14.1748 8.44824 13.9814 8.86426C13.7939 9.27441 13.5537 9.61426 13.2607 9.88379C12.9736 10.1533 12.6777 10.3555 12.373 10.4902C12.0742 10.625 11.8164 10.6924 11.5996 10.6924C11.4707 10.6924 11.3652 10.6543 11.2832 10.5781C11.207 10.4961 11.1689 10.3994 11.1689 10.2881C11.1689 10.1826 11.1982 10.0947 11.2568 10.0244C11.3154 9.94824 11.4268 9.88965 11.5908 9.84863C11.7783 9.7959 11.9717 9.71094 12.1709 9.59375C12.376 9.47656 12.5635 9.32715 12.7334 9.14551C12.9092 8.96387 13.0498 8.75 13.1553 8.50391H13.085C12.9736 8.65039 12.8301 8.74707 12.6543 8.79395C12.4844 8.83496 12.3086 8.85547 12.127 8.85547C11.6289 8.85547 11.2334 8.68555 10.9404 8.3457C10.6475 8 10.501 7.57812 10.501 7.08008Z" fill="white"/>
</svg>
