<svg width="30" height="21" viewBox="0 0 30 21" fill="none" xmlns="http://www.w3.org/2000/svg">
<path d="M3.86035 20.1484C2.736 20.1484 1.89095 19.8691 1.3252 19.3105C0.766602 18.7591 0.487305 17.9284 0.487305 16.8184V3.70215C0.487305 2.59212 0.766602 1.76139 1.3252 1.20996C1.89095 0.651367 2.736 0.37207 3.86035 0.37207H26.1504C27.2747 0.37207 28.1162 0.651367 28.6748 1.20996C29.2334 1.76139 29.5127 2.59212 29.5127 3.70215V16.8184C29.5127 17.9284 29.2334 18.7591 28.6748 19.3105C28.1162 19.8691 27.2747 20.1484 26.1504 20.1484H3.86035ZM3.88184 18.4189H26.1182C26.6481 18.4189 27.0563 18.2793 27.3428 18C27.6364 17.7135 27.7832 17.291 27.7832 16.7324V3.78809C27.7832 3.22949 27.6364 2.81055 27.3428 2.53125C27.0563 2.24479 26.6481 2.10156 26.1182 2.10156H3.88184C3.34473 2.10156 2.93294 2.24479 2.64648 2.53125C2.36003 2.81055 2.2168 3.22949 2.2168 3.78809V16.7324C2.2168 17.291 2.36003 17.7135 2.64648 18C2.93294 18.2793 3.34473 18.4189 3.88184 18.4189ZM0.487305 15.0352V13.5205H4.85938C5.36068 13.5205 5.61133 13.2663 5.61133 12.7578V7.75195C5.61133 7.24349 5.36068 6.98926 4.85938 6.98926H0.487305V5.47461H4.87012C5.58626 5.47461 6.14128 5.67155 6.53516 6.06543C6.92904 6.45215 7.12598 7 7.12598 7.70898V12.8008C7.12598 13.5026 6.92904 14.0505 6.53516 14.4443C6.14128 14.8382 5.58626 15.0352 4.87012 15.0352H0.487305ZM14.2158 18.6982V1.82227H15.7305V18.6982H14.2158ZM14.957 15.3252C13.9688 15.3252 13.0915 15.1139 12.3252 14.6914C11.5661 14.2617 10.9717 13.6673 10.542 12.9082C10.1195 12.1419 9.9082 11.2575 9.9082 10.2549C9.9082 9.24512 10.1195 8.36068 10.542 7.60156C10.9717 6.83529 11.5661 6.24089 12.3252 5.81836C13.0915 5.38867 13.9688 5.18099 14.957 5.19531C15.9525 5.20247 16.8298 5.4209 17.5889 5.85059C18.348 6.28027 18.9424 6.87467 19.3721 7.63379C19.8089 8.3929 20.0309 9.2666 20.0381 10.2549C20.0524 11.2575 19.8447 12.1419 19.415 12.9082C18.9854 13.6673 18.3874 14.2617 17.6211 14.6914C16.8548 15.1139 15.9668 15.3252 14.957 15.3252ZM14.9678 13.8857C15.6768 13.8857 16.3034 13.7318 16.8477 13.4238C17.3991 13.1159 17.8288 12.6898 18.1367 12.1455C18.4447 11.5941 18.6022 10.9603 18.6094 10.2441C18.6094 9.53516 18.4554 8.90853 18.1475 8.36426C17.8395 7.81999 17.4098 7.39746 16.8584 7.09668C16.3141 6.78874 15.6839 6.63477 14.9678 6.63477C14.2588 6.63477 13.6286 6.78874 13.0771 7.09668C12.5329 7.39746 12.1068 7.81999 11.7988 8.36426C11.4909 8.90853 11.3369 9.53516 11.3369 10.2441C11.3369 10.9603 11.4909 11.5941 11.7988 12.1455C12.1068 12.6898 12.5329 13.1159 13.0771 13.4238C13.6286 13.7318 14.2588 13.8857 14.9678 13.8857ZM29.5127 15.0352H25.1299C24.4137 15.0352 23.8587 14.8382 23.4648 14.4443C23.0781 14.0505 22.8848 13.5026 22.8848 12.8008V7.70898C22.8848 7 23.0781 6.45215 23.4648 6.06543C23.8587 5.67155 24.4137 5.47461 25.1299 5.47461H29.5127V6.98926H25.1406C24.6465 6.98926 24.3994 7.24349 24.3994 7.75195V12.7578C24.3994 13.2663 24.6465 13.5205 25.1406 13.5205H29.5127V15.0352Z" fill="white"/>
</svg>
