<svg width="24" height="18" viewBox="0 0 24 18" fill="none" xmlns="http://www.w3.org/2000/svg">
<path d="M9.67969 16.915C9.47461 16.915 9.28125 16.8711 9.09961 16.7832C8.91797 16.6953 8.72754 16.5547 8.52832 16.3613L4.78418 12.8105C4.72559 12.7578 4.65234 12.7314 4.56445 12.7314H2.04199C1.4502 12.7314 0.996094 12.5703 0.679688 12.248C0.363281 11.9258 0.205078 11.4453 0.205078 10.8066V7.53711C0.205078 6.9043 0.363281 6.42676 0.679688 6.10449C0.996094 5.77637 1.4502 5.6123 2.04199 5.6123H4.56445C4.65234 5.6123 4.72559 5.58594 4.78418 5.5332L8.52832 2.01758C8.75098 1.80078 8.94434 1.64551 9.1084 1.55176C9.27246 1.45801 9.45703 1.41113 9.66211 1.41113C9.96094 1.41113 10.2041 1.51367 10.3916 1.71875C10.5791 1.91797 10.6729 2.16113 10.6729 2.44824V15.9307C10.6729 16.2119 10.5791 16.4463 10.3916 16.6338C10.21 16.8213 9.97266 16.915 9.67969 16.915ZM13.8018 12.8984C13.626 12.7754 13.5264 12.6172 13.5029 12.4238C13.4795 12.2305 13.5352 12.04 13.6699 11.8525C13.9219 11.4951 14.1182 11.085 14.2588 10.6221C14.3994 10.1533 14.4697 9.66406 14.4697 9.1543C14.4697 8.64453 14.3994 8.15527 14.2588 7.68652C14.124 7.21777 13.9277 6.80762 13.6699 6.45605C13.5293 6.27441 13.4707 6.08691 13.4941 5.89355C13.5234 5.69434 13.626 5.5332 13.8018 5.41016C13.9541 5.30469 14.1211 5.26953 14.3027 5.30469C14.4844 5.33984 14.6338 5.44238 14.751 5.6123C15.0908 6.05762 15.3545 6.59082 15.542 7.21191C15.7354 7.83301 15.832 8.48047 15.832 9.1543C15.832 9.82812 15.7354 10.4756 15.542 11.0967C15.3545 11.7178 15.0908 12.251 14.751 12.6963C14.6338 12.8662 14.4844 12.9688 14.3027 13.0039C14.1211 13.0332 13.9541 12.998 13.8018 12.8984ZM17.0713 15.1924C16.9131 15.0811 16.8223 14.9346 16.7988 14.7529C16.7754 14.5654 16.8252 14.3809 16.9482 14.1992C17.4229 13.5137 17.792 12.7373 18.0557 11.8701C18.3252 10.9971 18.46 10.0918 18.46 9.1543C18.46 8.2168 18.3281 7.31152 18.0645 6.43848C17.8008 5.56543 17.4287 4.78906 16.9482 4.10938C16.8193 3.92773 16.7666 3.74609 16.79 3.56445C16.8193 3.37695 16.9131 3.22754 17.0713 3.11621C17.2354 3.00488 17.4082 2.9668 17.5898 3.00195C17.7715 3.03711 17.9209 3.13965 18.0381 3.30957C18.6064 4.07129 19.0459 4.96484 19.3564 5.99023C19.667 7.01562 19.8223 8.07031 19.8223 9.1543C19.8223 10.2383 19.6641 11.29 19.3477 12.3096C19.0371 13.3291 18.6006 14.2256 18.0381 14.999C17.9209 15.1689 17.7715 15.2715 17.5898 15.3066C17.4082 15.3359 17.2354 15.2979 17.0713 15.1924ZM20.3672 17.5215C20.2031 17.4102 20.1094 17.2578 20.0859 17.0645C20.0625 16.877 20.1123 16.6953 20.2354 16.5195C20.6865 15.8516 21.0762 15.1279 21.4043 14.3486C21.7383 13.5635 21.9961 12.7373 22.1777 11.8701C22.3594 10.9971 22.4502 10.0918 22.4502 9.1543C22.4502 8.21094 22.3594 7.30566 22.1777 6.43848C21.9961 5.56543 21.7383 4.74219 21.4043 3.96875C21.0762 3.18945 20.6865 2.46289 20.2354 1.78906C20.1123 1.60742 20.0625 1.42285 20.0859 1.23535C20.1094 1.04785 20.2031 0.898438 20.3672 0.787109C20.5195 0.675781 20.6895 0.640625 20.877 0.681641C21.0645 0.716797 21.2168 0.825195 21.334 1.00684C21.8379 1.75098 22.2744 2.55664 22.6436 3.42383C23.0127 4.28516 23.2969 5.19629 23.4961 6.15723C23.6953 7.11816 23.7949 8.11719 23.7949 9.1543C23.7949 10.1914 23.6953 11.1904 23.4961 12.1514C23.3027 13.1123 23.0215 14.0264 22.6523 14.8936C22.2891 15.7549 21.8496 16.5576 21.334 17.3018C21.2168 17.4775 21.0645 17.5859 20.877 17.627C20.6895 17.668 20.5195 17.6328 20.3672 17.5215Z" fill="white"/>
</svg>
