<svg width="35" height="34" viewBox="0 0 35 34" fill="none" xmlns="http://www.w3.org/2000/svg">
<path opacity="0.6" d="M17.9053 33.9473C8.6582 33.9473 0.97168 26.2607 0.97168 17.0137C0.97168 7.75 8.6416 0.0800781 17.8887 0.0800781C27.1523 0.0800781 34.8389 7.75 34.8389 17.0137C34.8389 26.2607 27.1689 33.9473 17.9053 33.9473ZM9.91992 19.5039C11.2979 19.5039 12.4102 18.3916 12.4102 16.9971C12.4102 15.6191 11.2812 14.5068 9.91992 14.5068C8.54199 14.5068 7.41309 15.6191 7.41309 16.9971C7.41309 18.3916 8.54199 19.5039 9.91992 19.5039ZM17.9053 19.5039C19.2832 19.5039 20.3955 18.3916 20.3955 16.9971C20.3955 15.6191 19.2832 14.5068 17.9053 14.5068C16.5273 14.5068 15.3984 15.6191 15.3984 16.9971C15.3984 18.3916 16.5273 19.5039 17.9053 19.5039ZM25.9072 19.5039C27.2686 19.5039 28.3975 18.3916 28.3975 16.9971C28.3975 15.6191 27.2686 14.5068 25.9072 14.5068C24.5127 14.5068 23.4004 15.6191 23.4004 16.9971C23.4004 18.3916 24.5127 19.5039 25.9072 19.5039Z" fill="white"/>
</svg>
